<?xml version="1.0" encoding="utf-8"?>
<!-- Generator: Adobe Illustrator 26.0.0, SVG Export Plug-In . SVG Version: 6.00 Build 0)  -->
<svg version="1.1" id="Layer_1" xmlns="http://www.w3.org/2000/svg" xmlns:xlink="http://www.w3.org/1999/xlink" x="0px" y="0px"
	 viewBox="0 0 137.6 46" style="enable-background:new 0 0 137.6 46;" xml:space="preserve">
<style type="text/css">
	.st0{fill:#00A0DF;}
	.st1{fill:#000000;}
</style>
<g>
	<g>
		<g>
			<path class="st0" d="M28.8,4.8H0V1.6h28.8V4.8z M89.6,26.2c-2.2,1.7-4.9,2.7-7.9,2.7c-7.1,0-12.9-5.8-12.9-12.9
				c0-7.1,5.8-12.9,12.9-12.9c7.1,0,12.9,5.8,12.9,12.9c0,3-1,5.7-2.7,7.9l5.3,5.2l2.2-2.2L96,23.4c1.2-2.2,1.8-4.7,1.8-7.4
				c0-8.9-7.2-16-16-16c-8.9,0-16,7.2-16,16c0,8.8,7.2,16,16,16c2.7,0,5.2-0.7,7.4-1.8l3.5,3.5l2.2-2.2L89.6,26.2z M0,8v3.2h9.6
				v19.2h3.2V8H0z M16,8v22.4h3.2V11.2h9.6V8H16z M81.7,10c-3.4,0-6.1,2.7-6.1,6.1c0,3.4,2.7,6.1,6.1,6.1c3.4,0,6.1-2.7,6.1-6.1
				C87.8,12.7,85.1,10,81.7,10 M81.7,6.8c5.1,0,9.2,4.1,9.2,9.2c0,5.1-4.1,9.2-9.2,9.2c-5.1,0-9.2-4.1-9.2-9.2
				C72.5,10.9,76.6,6.8,81.7,6.8"/>
			<path class="st1" d="M127.3,30.4l-11-28.8h10.2l11,28.8H127.3z M102.4,30.4h10.2l4.9-12.9h-10.2L102.4,30.4z"/>
		</g>
		<path class="st1" d="M53.7,30.4l-11-28.8h10.2l11,28.8H53.7z M28.8,30.4H39l4.9-12.9H33.7L28.8,30.4z"/>
	</g>
	<g>
		<path class="st1" d="M74.7,45.9h-0.3l-3.3-4v4h-2.2v-8.1h2.3l3.4,4.2l3.4-4.2h2.3v8.1H78v-4L74.7,45.9z"/>
		<path class="st1" d="M86.5,37.8c1.2,0,2.2,0.4,3.1,1.2c0.8,0.8,1.3,1.8,1.3,2.9c0,1.1-0.4,2.1-1.3,2.9c-0.9,0.8-1.9,1.2-3.1,1.2
			c-1.2,0-2.2-0.4-3.1-1.2c-0.9-0.8-1.3-1.8-1.3-2.9c0-1.1,0.4-2.1,1.3-2.9C84.3,38.2,85.3,37.8,86.5,37.8z M86.5,44
			c0.6,0,1.1-0.2,1.5-0.6c0.4-0.4,0.6-0.9,0.6-1.5c0-0.6-0.2-1.1-0.6-1.5c-0.4-0.4-0.9-0.6-1.5-0.6c-0.6,0-1.1,0.2-1.5,0.6
			c-0.4,0.4-0.6,0.9-0.6,1.5c0,0.6,0.2,1.1,0.6,1.5C85.4,43.8,85.9,44,86.5,44z"/>
		<path class="st1" d="M92.8,45.8V38H95v1.2c0.6-0.8,1.3-1.3,2.3-1.3c0.4,0,0.6,0,0.7,0v2l-0.6-0.1c-0.5,0-1,0.2-1.4,0.5
			c-0.4,0.3-0.7,0.7-0.8,1c-0.2,0.4-0.2,0.7-0.2,1v3.4H92.8z"/>
		<path class="st1" d="M103.5,37.8c1.2,0,2.2,0.4,3.1,1.2c0.8,0.8,1.3,1.8,1.3,2.9c0,1.1-0.4,2.1-1.3,2.9c-0.9,0.8-1.9,1.2-3.1,1.2
			c-1.2,0-2.2-0.4-3.1-1.2c-0.9-0.8-1.3-1.8-1.3-2.9c0-1.1,0.4-2.1,1.3-2.9C101.3,38.2,102.3,37.8,103.5,37.8z M103.5,44
			c0.6,0,1.1-0.2,1.5-0.6c0.4-0.4,0.6-0.9,0.6-1.5c0-0.6-0.2-1.1-0.6-1.5c-0.4-0.4-0.9-0.6-1.5-0.6c-0.6,0-1.1,0.2-1.5,0.6
			c-0.4,0.4-0.6,0.9-0.6,1.5c0,0.6,0.2,1.1,0.6,1.5C102.4,43.8,102.9,44,103.5,44z"/>
		<path class="st1" d="M117.8,42.9c-0.2,0.9-0.7,1.6-1.5,2.2c-0.8,0.6-1.6,0.9-2.6,0.9c-1.2,0-2.2-0.4-3-1.2
			c-0.8-0.8-1.3-1.8-1.3-2.9c0-1.1,0.4-2.1,1.3-2.9c0.8-0.8,1.8-1.2,3-1.2c1,0,1.8,0.3,2.6,0.9c0.8,0.6,1.3,1.3,1.5,2.2h-2.4
			c-0.3-0.7-0.9-1.1-1.8-1.1c-0.6,0-1.1,0.2-1.5,0.6c-0.4,0.4-0.6,0.9-0.6,1.5c0,0.6,0.2,1.1,0.6,1.5c0.4,0.4,0.9,0.6,1.5,0.6
			c0.9,0,1.5-0.4,1.8-1.1H117.8z"/>
		<path class="st1" d="M127.6,42.9c-0.2,0.9-0.7,1.6-1.5,2.2c-0.8,0.6-1.6,0.9-2.6,0.9c-1.2,0-2.2-0.4-3-1.2
			c-0.8-0.8-1.3-1.8-1.3-2.9c0-1.1,0.4-2.1,1.3-2.9c0.8-0.8,1.8-1.2,3-1.2c1,0,1.8,0.3,2.6,0.9c0.8,0.6,1.3,1.3,1.5,2.2h-2.4
			c-0.3-0.7-0.9-1.1-1.8-1.1c-0.6,0-1.1,0.2-1.5,0.6c-0.4,0.4-0.6,0.9-0.6,1.5c0,0.6,0.2,1.1,0.6,1.5c0.4,0.4,0.9,0.6,1.5,0.6
			c0.9,0,1.5-0.4,1.8-1.1H127.6z"/>
		<path class="st1" d="M133.3,37.8c1.2,0,2.2,0.4,3.1,1.2c0.8,0.8,1.3,1.8,1.3,2.9c0,1.1-0.4,2.1-1.3,2.9c-0.9,0.8-1.9,1.2-3.1,1.2
			c-1.2,0-2.2-0.4-3.1-1.2c-0.9-0.8-1.3-1.8-1.3-2.9c0-1.1,0.4-2.1,1.3-2.9C131,38.2,132.1,37.8,133.3,37.8z M133.3,44
			c0.6,0,1.1-0.2,1.5-0.6c0.4-0.4,0.6-0.9,0.6-1.5c0-0.6-0.2-1.1-0.6-1.5c-0.4-0.4-0.9-0.6-1.5-0.6c-0.6,0-1.1,0.2-1.5,0.6
			c-0.4,0.4-0.6,0.9-0.6,1.5c0,0.6,0.2,1.1,0.6,1.5C132.2,43.8,132.7,44,133.3,44z"/>
	</g>
</g>
<g>
</g>
<g>
</g>
<g>
</g>
<g>
</g>
<g>
</g>
<g>
</g>
</svg>
