<?xml version="1.0" encoding="utf-8"?>
<svg version="1.1" xmlns="http://www.w3.org/2000/svg" viewBox="0 0 137.6 46" xml:space="preserve">
<style type="text/css">
  .st0{fill:#00A0DF;}
  .st1{fill:#2D3748;}
</style>
<g>
  <!-- Simplified blue accent bar -->
  <rect class="st0" x="0" y="1.6" width="28.8" height="3.2"/>
  
  <!-- Simplified text elements -->
  <g>
    <!-- T -->
    <rect class="st1" x="0" y="8" width="12.8" height="3.2"/>
    <rect class="st1" x="4.8" y="11.2" width="3.2" height="19.2"/>
    
    <!-- A -->
    <polygon class="st1" points="16,30.4 19.2,30.4 23.2,17.5 27.2,30.4 30.4,30.4 24.8,8 21.6,8"/>
    <rect class="st1" x="20.8" y="20.8" width="4.8" height="2.4"/>
    
    <!-- Q -->
    <circle class="st1" cx="40" cy="16" r="8" fill="none" stroke="#2D3748" stroke-width="3.2"/>
    <rect class="st1" x="42.4" y="20.8" width="4.8" height="4.8" transform="rotate(45 44.8 23.2)"/>
    
    <!-- A -->
    <polygon class="st1" points="53.6,30.4 56.8,30.4 60.8,17.5 64.8,30.4 68,30.4 62.4,8 59.2,8"/>
    <rect class="st1" x="58.4" y="20.8" width="4.8" height="2.4"/>
  </g>
  
  <!-- Simplified Morocco text -->
  <g>
    <text class="st1" x="74.7" y="42" font-family="Arial, sans-serif" font-size="8" font-weight="500">Morocco</text>
  </g>
</g>
</svg> 